<svg xmlns="http://www.w3.org/2000/svg" width="25" height="25" viewBox="0 0 25 25">
  <g id="Layer_x0020_1" transform="translate(0 -0.01)">
    <path id="Path_78011" data-name="Path 78011" d="M9.226,5.248h8.844V4a2.306,2.306,0,0,0-2.3-2.3H3.988A2.306,2.306,0,0,0,1.691,4V15.784a2.306,2.306,0,0,0,2.3,2.3H5.238V9.236A4,4,0,0,1,9.226,5.248h0Zm10.536,0h1.249A4,4,0,0,1,25,9.236V21.022a4,4,0,0,1-3.988,3.988H9.226a4,4,0,0,1-3.988-3.988V19.772H3.988A4,4,0,0,1,0,15.784V4A4,4,0,0,1,3.988.01H15.774A4,4,0,0,1,19.762,4ZM21.012,6.94H9.226a2.306,2.306,0,0,0-2.3,2.3V21.022a2.306,2.306,0,0,0,2.3,2.3H21.012a2.306,2.306,0,0,0,2.3-2.3V9.237a2.306,2.306,0,0,0-2.3-2.3Z" transform="translate(0 0)" fill="#14c6f1"/>
  </g>
</svg>
