<?xml version="1.0" encoding="UTF-8"?>
<!DOCTYPE svg PUBLIC "-//W3C//DTD SVG 1.1//EN" "http://www.w3.org/Graphics/SVG/1.1/DTD/svg11.dtd">
<!-- Creator: CorelDRAW 2020 (64-Bit) -->
<svg xmlns="http://www.w3.org/2000/svg" xml:space="preserve" width="0.736248in" height="0.767445in" version="1.1" style="shape-rendering:geometricPrecision; text-rendering:geometricPrecision; image-rendering:optimizeQuality; fill-rule:evenodd; clip-rule:evenodd"
viewBox="0 0 556.65 580.23"
 xmlns:xlink="http://www.w3.org/1999/xlink"
 xmlns:xodm="http://www.corel.com/coreldraw/odm/2003">
 <defs>
  <style type="text/css">
   <![CDATA[
    .fil1 {fill:#0BB9E5}
    .fil2 {fill:#C1C2C4}
    .fil0 {fill:white;fill-rule:nonzero}
   ]]>
  </style>
 </defs>
 <g id="Layer_x0020_1">
  <metadata id="CorelCorpID_0Corel-Layer"/>
  <path class="fil0" d="M34.34 387.1l0 150.2 -34.34 0 0 -115.86c0,-18.97 15.37,-34.34 34.34,-34.34l0 0zm522.31 118.01c0,24.69 -21.43,35.21 -44.64,35.21 -21.43,0 -37.75,-8.18 -46.11,-25.56l27.9 -15.87c2.77,8.14 8.78,12.65 18.21,12.65 7.72,0 11.62,-2.35 11.62,-6.66 0,-11.78 -52.82,-5.57 -52.82,-42.71 0,-23.36 19.76,-35.17 42.07,-35.17 17.38,0 32.83,7.72 41.84,22.94l-27.45 14.8c-2.99,-5.56 -7.31,-9.43 -14.39,-9.43 -5.57,0 -9.01,2.16 -9.01,6.02 0,12.23 52.78,4.09 52.78,43.77l0 -0zm-140.09 -89.96c-16.4,-19.84 7.99,-44.22 27.83,-27.83 16.43,19.88 -7.95,44.26 -27.83,27.83zm-2.16 14.84l32.18 0 0 75.12c0,17.8 -14.42,32.18 -32.18,32.18l0 -107.3zm-19.31 -2.12l0 36.46c-13.33,-2.16 -32.22,3.22 -32.22,24.46l0 48.5 -32.18 0 0 -107.3 32.18 0 0 19.12c4.32,-14.39 18.67,-21.24 32.22,-21.24l0 0zm-86.93 55.77c0,31.99 -23.17,56.68 -51.3,56.68 -14.35,0 -24.88,-4.96 -31.95,-13.1l0 53 -32.18 0 0 -150.24 32.18 0 0 10.11c7.08,-8.18 17.61,-13.1 31.95,-13.1 28.13,0 51.3,24.69 51.3,56.64zm-32.18 0c0,-16.09 -10.72,-26.16 -25.56,-26.16 -14.8,0 -25.52,10.07 -25.52,26.16 0,16.09 10.72,26.2 25.52,26.2 14.84,0 25.56,-10.11 25.56,-26.2zm-109.65 -12.23l0 65.88 -32.22 0 0 -61.15c0,-13.29 -8.37,-19.54 -18.67,-19.54 -11.78,0 -19.96,6.86 -19.96,22.11l0 58.57 -32.18 0 0 -107.3 32.18 0 0 10.11c5.79,-7.95 16.55,-13.1 30.71,-13.1 21.66,0 40.13,15.45 40.13,44.41l0 0z"/>
  <path class="fil1" d="M407.06 3.52c-1.17,0.72 -2.35,1.44 -3.48,2.31l0 0c-0.11,0.08 -2.8,2.31 -3.03,2.54l0 0c-0.57,0.49 -270.98,289.49 -270.98,289.49l0 0c-3.6,3.82 -3.44,9.84 0.3,13.48l0 0 2.08 2.04c3.79,3.63 9.77,3.63 13.52,-0.04l0 0c0,0 281.5,-277.53 281.62,-277.64l0 0c3.98,-3.67 6.66,-8.1 8.06,-12.57l0 0c2.12,-6.66 1.29,-13.44 -2.99,-18.06l0 0c-3.18,-3.41 -7.61,-5.08 -12.46,-5.08l0 0c-4.13,0 -8.52,1.21 -12.64,3.52l-0 0zm-99.31 7.72c-0.83,0.99 -2.01,2.12 -2.88,3.1l0 0c0,0 -173.26,200.14 -173.49,200.4l0 0c-4.66,5.22 -8.59,14.2 -10.26,24.8l0 0c-1.55,9.88 -0.49,19.69 1.89,26.09l0 0 210.44 -231.52c1.93,-2.24 3.41,-4.62 4.47,-7.08l0 0c2.99,-7.04 2.42,-14.58 -2.27,-19.27l0 0c-2.84,-2.84 -6.66,-4.2 -10.79,-4.2l0 0c-5.75,0 -12.08,2.65 -17.11,7.69l0 0zm99.77 85.99c-1.59,0.95 -3.14,2.04 -4.58,3.37l0 0c-0.08,0.08 -224.41,217.18 -225.17,217.97l0 0c6.51,2.23 15.9,2.61 25.97,0.42l0 0c9.81,-2.12 17.98,-6.13 23.06,-10.72l0 0 0.04 0.04c7.38,-6.85 199.27,-182.38 199.38,-182.49l0 0c0.57,-0.49 0.99,-1.06 1.48,-1.59l0 0c7.61,-8.22 9.13,-19.46 3.1,-26.01l0 0c-2.84,-3.07 -6.85,-4.54 -11.25,-4.54l0 0c-3.9,0 -8.14,1.21 -12.04,3.56l0 0 0 0z"/>
  <path class="fil2" d="M126.95 144.33c-3.26,4.43 -5.49,9.62 -6.17,15.11l0 0c-0.68,5.34 -0.38,11.21 4.16,14.76l0 0c0.83,0.68 1.78,1.06 2.73,1.21l0 0c1.93,0.3 3.98,-0.34 5.87,-1.48l0 0c0.91,-0.6 1.82,-1.32 2.61,-2.16l0 0c0.83,-0.79 40.25,-49.41 57.25,-69.86l0 0c5.19,-6.28 7.91,-13.21 8.37,-20.75l0 0c0.15,-2.5 0.11,-5.11 -0.3,-7.72l0 0c-1.4,-8.82 -9.28,-17.61 -9.8,-17.95 -1.52,1.86 -61.87,84.96 -64.71,88.83l0 0zm234.67 79.47c-1.48,0.83 -2.95,1.78 -4.39,2.88l0 0c-0.57,0.46 -1.02,0.95 -1.52,1.44l0 0 -0.08 -0.11c-10.53,9.31 -84.58,74.89 -85.79,76.37l0 0c-1.67,2.04 -1.7,3.94 -1.63,5.26l0 0c-0.04,0.38 0.19,1.59 0.3,1.82l0 0c1.59,3.94 8.9,5.72 16.96,3.98l0 0c2.35,-0.49 4.47,-1.25 6.36,-2.16l0 0c1.59,-0.76 2.95,-1.63 4.09,-2.57l0 0c8.29,-5.41 76.33,-57.44 81.1,-61.26l0 0 -0.04 -0.08c0.23,-0.23 0.49,-0.42 0.72,-0.64l0 0c7.23,-6.66 9.2,-16.51 4.28,-22.6l0 0c-2.54,-3.14 -6.44,-4.73 -10.75,-4.73l0 0c-3.1,0 -6.44,0.83 -9.62,2.42l0 0 0 -0z"/>
 </g>
</svg>
