<?xml version="1.0" encoding="UTF-8"?>
<!DOCTYPE svg PUBLIC "-//W3C//DTD SVG 1.1//EN" "http://www.w3.org/Graphics/SVG/1.1/DTD/svg11.dtd">
<!-- Creator: CorelDRAW 2020 (64-Bit) -->
<svg xmlns="http://www.w3.org/2000/svg" xml:space="preserve" width="0.520835in" height="0.520835in" version="1.1" style="shape-rendering:geometricPrecision; text-rendering:geometricPrecision; image-rendering:optimizeQuality; fill-rule:evenodd; clip-rule:evenodd"
viewBox="0 0 190.32 190.32"
 xmlns:xlink="http://www.w3.org/1999/xlink"
 xmlns:xodm="http://www.corel.com/coreldraw/odm/2003">
 <defs>
  <style type="text/css">
   <![CDATA[
    .fil0 {fill:#14C6F1}
    .fil1 {fill:white;fill-rule:nonzero}
   ]]>
  </style>
 </defs>
 <g id="Layer_x0020_1">
  <metadata id="CorelCorpID_0Corel-Layer"/>
  <circle class="fil0" cx="95.16" cy="95.16" r="95.16"/>
  <path class="fil1" d="M117.74 97.02l-0.16 -34.6c-0.08,-12.39 -10.14,-22.39 -22.53,-22.4l-0.11 0c-12.4,0.07 -22.42,10.15 -22.42,22.55 0,0.03 0,0.06 0,0.09l0.16 34.6c0.07,12.39 10.13,22.4 22.52,22.4l0.13 0c12.4,-0.06 22.41,-10.13 22.41,-22.53 0,-0.04 0,-0.08 0,-0.12l0 0 0 0zm10.38 1.42c-2.54,0 -4.6,2.06 -4.6,4.6 -0.08,6.53 -3.02,12.7 -8.06,16.87 -5.58,4.76 -12.69,7.39 -20.03,7.39 -0.08,0 -0.17,0 -0.26,0l-0.04 0c-15.59,0 -28.3,-10.71 -28.37,-23.96 0,-2.54 -2.06,-4.6 -4.6,-4.6l0 0c-2.54,0 -4.6,2.06 -4.6,4.6 0.03,17.01 14.45,30.95 32.97,32.94l0 4.81 -4.89 0c-2.54,0 -4.6,2.06 -4.6,4.6 0,2.54 2.06,4.6 4.6,4.6l0 0 19.56 -0.1c2.54,0 4.6,-2.06 4.6,-4.6 0,-2.54 -2.06,-4.6 -4.6,-4.6l0 0 -5.43 0 0 -4.78c8.08,-0.82 15.72,-4.11 21.86,-9.42 7.01,-5.91 11.08,-14.6 11.13,-23.77 -0.01,-2.53 -2.07,-4.58 -4.6,-4.58 -0.01,0 -0.02,0 -0.03,0l0 0 0 0zm-23.44 8.08c-2.48,2.52 -5.87,3.94 -9.4,3.95l-0.07 0c0,0 0,0 0,0 -7.33,0 -13.28,-5.92 -13.33,-13.24l-0.16 -34.6c0,-0.02 0,-0.04 0,-0.06 0,-7.33 5.92,-13.29 13.26,-13.34l0.07 0c7.33,0 13.27,5.92 13.33,13.24l0.16 34.6c0,0.04 0,0.08 0,0.11 0,3.5 -1.39,6.86 -3.86,9.34l0 0 0 0z"/>
 </g>
</svg>
