<svg xmlns="http://www.w3.org/2000/svg" width="17.559" height="25" viewBox="0 0 17.559 25">
  <g id="Layer_x0020_1" transform="translate(0 -0.01)">
    <path id="Path_78019" data-name="Path 78019" d="M8.779,15.83a4.821,4.821,0,0,0,4.813-4.813V4.823a4.813,4.813,0,0,0-9.626,0v6.194A4.821,4.821,0,0,0,8.779,15.83Zm7.665-5.972a1.1,1.1,0,0,0-1.114,1.114,6.551,6.551,0,1,1-13.1,0A1.1,1.1,0,0,0,1.114,9.858,1.1,1.1,0,0,0,0,10.972a8.763,8.763,0,0,0,7.665,8.69v3.12H6.15a1.114,1.114,0,0,0,0,2.228h5.259a1.114,1.114,0,1,0,0-2.228H9.894v-3.12a8.763,8.763,0,0,0,7.665-8.69,1.132,1.132,0,0,0-1.114-1.114Z" fill="#14c6f1"/>
  </g>
</svg>
