<svg id="Layer_x0020_1" xmlns="http://www.w3.org/2000/svg" width="17.364" height="20" viewBox="0 0 17.364 20">
  <path id="Path_78017" data-name="Path 78017" d="M2.673,7.323v5.345H7.8a2.038,2.038,0,0,1,1.242.432l4.347,3.483a1.328,1.328,0,0,1,1.323-1.242,1.354,1.354,0,0,1,1.35,1.35v1.3A2.012,2.012,0,0,1,12.8,19.553L7.559,15.368H2a1.993,1.993,0,0,1-2-2v-6.7a1.993,1.993,0,0,1,2-2h.675a1.35,1.35,0,0,1,0,2.7ZM13.364,3.409,12.2,4.353a1.345,1.345,0,0,1-1.674-2.106L12.8.439A2.012,2.012,0,0,1,16.063,2V7.3a1.35,1.35,0,1,1-2.7,0V3.382Zm3.564,8.612a1.338,1.338,0,1,1-1.809,1.971L4.428,4.3A1.338,1.338,0,1,1,6.236,2.329l10.691,9.692Z" transform="translate(0 0.004)" fill="#ffffff" fill-rule="evenodd"/>
</svg>
