<?xml version="1.0" encoding="UTF-8"?>
<!DOCTYPE svg PUBLIC "-//W3C//DTD SVG 1.1//EN" "http://www.w3.org/Graphics/SVG/1.1/DTD/svg11.dtd">
<!-- Creator: CorelDRAW 2020 (64-Bit) -->
<svg xmlns="http://www.w3.org/2000/svg" xml:space="preserve" width="1.84441in" height="0.364583in" version="1.1" style="shape-rendering:geometricPrecision; text-rendering:geometricPrecision; image-rendering:optimizeQuality; fill-rule:evenodd; clip-rule:evenodd"
viewBox="0 0 9330.79 1844.41"
 xmlns:xlink="http://www.w3.org/1999/xlink"
 xmlns:xodm="http://www.corel.com/coreldraw/odm/2003">
 <defs>
  <style type="text/css">
   <![CDATA[
    .fil1 {fill:#C6C6C6}
    .fil0 {fill:#707070;fill-rule:nonzero}
   ]]>
  </style>
 </defs>
 <g id="Layer_x0020_1">
  <metadata id="CorelCorpID_0Corel-Layer"/>
  <path class="fil0" d="M526.97 0l790.47 0c290.99,0 526.97,235.98 526.97,526.97l0 790.47c0,290.97 -235.98,526.95 -526.97,526.95l-790.47 0.02c-290.97,-0.02 -526.95,-236 -526.95,-526.99l-0.02 -790.45c0.02,-290.99 236,-526.97 526.99,-526.97z" data-name="Rectangle 22489"/>
  <path id="Powered_by_Inpris" class="fil0" d="M2408.28 903.82l0 258.9 -53.76 0 0 -636.95 216.96 0c66.28,0 118.55,16.87 156.77,50.77 38.36,33.88 57.62,80.47 57.62,139.74 0,59.89 -18.5,106.16 -55.39,138.72 -36.87,32.54 -90.32,48.82 -160.35,48.82l-161.85 0zm0 -45.69l163.2 0c52.24,0 91.96,-12.39 119.44,-37.32 27.47,-24.78 41.05,-59.43 41.05,-103.77 0,-44.2 -13.58,-79.29 -40.91,-105.42 -27.17,-26.27 -65.85,-39.56 -116.02,-40.15l-166.77 0 0 286.67z"/>
  <path id="1" class="fil0" d="M2859.19 919.2c0,-45.53 8.8,-86.44 26.43,-122.87 17.63,-36.59 42.54,-64.95 74.81,-85.11 32.25,-20.32 68.67,-30.47 109.58,-30.47 62.86,0 113.93,22.11 153.04,66.3 39.12,44.2 58.68,102.71 58.68,175.73l0 10.89c0,45.85 -8.96,86.9 -26.57,123.63 -17.63,36.59 -42.4,64.81 -74.51,84.67 -32.11,19.86 -68.67,29.72 -109.74,29.72 -62.7,0 -113.77,-22.11 -152.88,-66.3 -39.28,-44.2 -58.84,-102.71 -58.84,-175.73l0 -10.46zm52.4 14.64c0,56.58 14.64,103.17 44.06,139.46 29.26,36.27 67.64,54.49 115.26,54.49 47.18,0 85.4,-18.22 114.66,-54.49 29.42,-36.29 44.06,-84.21 44.06,-143.8l0 -10c0,-36.27 -6.71,-69.43 -20.16,-99.43 -13.44,-30.02 -32.25,-53.32 -56.45,-69.73 -24.18,-16.57 -51.8,-24.8 -83.01,-24.8 -46.73,0 -84.81,18.36 -114.22,54.95 -29.4,36.59 -44.2,84.51 -44.2,143.78l0 9.56z"/>
  <polygon id="2" class="fil0" points="3503.01,1053.88 3510.92,1094.49 3521.38,1051.65 3635.14,689.71 3679.64,689.71 3792.07,1048.66 3804.32,1098.53 3814.46,1052.54 3911.51,689.71 3965.71,689.71 3828.06,1162.72 3783.41,1162.72 3661.73,787.66 3656.06,761.83 3650.38,788.1 3530.94,1162.72 3486.28,1162.72 3349.07,689.71 3402.83,689.71 "/>
  <path id="3" class="fil0" d="M4248.51 1171.69c-40.31,0 -76.6,-9.86 -109.15,-29.72 -32.54,-19.86 -57.78,-47.48 -75.84,-83.01 -18.06,-35.39 -27.17,-75.11 -27.17,-119.14l0 -18.82c0,-45.53 8.8,-86.44 26.41,-123.03 17.63,-36.43 42.26,-65.09 73.77,-85.84 31.49,-20.91 65.55,-31.37 102.27,-31.37 57.48,0 103.01,19.56 136.77,58.84 33.74,39.26 50.45,92.87 50.45,160.95l0 29.26 -337.58 0 0 10.02c0,53.74 15.38,98.53 46.13,134.38 30.77,35.67 69.43,53.6 116.18,53.6 27.9,0 52.7,-5.08 74.05,-15.38 21.49,-10.32 40.91,-26.73 58.38,-49.28l32.84 24.94c-38.52,55.69 -94.37,83.61 -167.52,83.61zm-9.7 -446.14c-39.28,0 -72.42,14.48 -99.45,43.3 -27.03,28.82 -43.44,67.5 -49.28,116.18l284 0 0 -5.68c-1.49,-45.39 -14.5,-82.42 -38.98,-110.94 -24.48,-28.52 -56.58,-42.86 -96.3,-42.86z"/>
  <path id="4" class="fil0" d="M4746.3 734.07c-11.03,-2.09 -22.84,-3.15 -35.37,-3.15 -32.7,0 -60.33,9.1 -82.88,27.33 -22.55,18.22 -38.68,44.63 -48.38,79.43l0 325.05 -51.96 0 0 -473.01 51.07 0 0.9 74.95c27.78,-55.99 72.26,-83.91 133.48,-83.91 14.64,0 26.13,1.95 34.5,5.68l-1.35 47.64z"/>
  <path id="5" class="fil0" d="M5004.47 1171.69c-40.31,0 -76.6,-9.86 -109.15,-29.72 -32.54,-19.86 -57.78,-47.48 -75.84,-83.01 -18.06,-35.39 -27.17,-75.11 -27.17,-119.14l0 -18.82c0,-45.53 8.8,-86.44 26.41,-123.03 17.63,-36.43 42.26,-65.09 73.77,-85.84 31.49,-20.91 65.55,-31.37 102.27,-31.37 57.48,0 103.01,19.56 136.77,58.84 33.74,39.26 50.45,92.87 50.45,160.95l0 29.26 -337.58 0 0 10.02c0,53.74 15.38,98.53 46.13,134.38 30.77,35.67 69.43,53.6 116.18,53.6 27.9,0 52.7,-5.08 74.05,-15.38 21.49,-10.32 40.91,-26.73 58.38,-49.28l32.84 24.94c-38.52,55.69 -94.37,83.61 -167.52,83.61zm-9.7 -446.14c-39.28,0 -72.42,14.48 -99.45,43.3 -27.03,28.82 -43.44,67.5 -49.28,116.18l284 0 0 -5.68c-1.49,-45.39 -14.5,-82.42 -38.98,-110.94 -24.48,-28.52 -56.58,-42.86 -96.3,-42.86z"/>
  <path id="6" class="fil0" d="M5262.91 921.89c0,-73.61 16.43,-132.13 49.28,-175.73 32.84,-43.6 77.34,-65.41 133.64,-65.41 63.89,0 112.57,25.24 146.01,75.71l0 -265.62 52.1 0 0 671.89 -48.96 0 -2.25 -63.02c-33.44,47.94 -82.72,71.98 -147.81,71.98 -54.51,0 -98.55,-21.95 -131.85,-65.85 -33.44,-43.9 -50.17,-103.17 -50.17,-177.82l0 -6.13zm53.02 9.1c0,60.33 12.09,107.95 36.27,142.75 24.2,34.8 58.38,52.26 102.43,52.26 64.35,0 110.18,-28.36 137.21,-85.27l0 -222.02c-27.03,-61.5 -72.56,-92.28 -136.47,-92.28 -44.04,0 -78.23,17.33 -102.71,51.82 -24.5,34.48 -36.73,85.4 -36.73,152.72z"/>
  <path id="7" class="fil0" d="M6380.31 930.99c0,73.77 -16.27,132.45 -48.96,175.75 -32.7,43.3 -76.6,64.95 -131.69,64.95 -65.85,0 -115.72,-24.64 -149.62,-73.75l-2.09 64.79 -48.98 0 0 -671.89 51.96 0 0 267.25c33.3,-51.51 82.58,-77.34 147.83,-77.34 55.99,0 100.32,21.35 132.89,64.05 32.39,42.86 48.66,102.27 48.66,178.28l0 7.91zm-52.4 -9.1c0,-62.4 -12.09,-110.48 -36.43,-144.52 -24.18,-33.9 -58.24,-50.93 -102.27,-50.93 -33.6,0 -61.96,8.23 -85.27,24.64 -23.42,16.57 -41.05,40.61 -53,72.42l0 213.35c26.29,59.43 72.56,89.15 139.16,89.15 43.14,0 76.9,-17.03 101.24,-51.21 24.32,-34.06 36.57,-85.11 36.57,-152.9z"/>
  <path id="8" class="fil0" d="M6641.16 1087.48l138.11 -397.77 56.45 0 -202.02 553.2 -10.6 24.48c-25.83,57.48 -66.01,86.16 -120.2,86.16 -12.55,0 -25.97,-2.09 -40.31,-6.13l-0.44 -43.14 27.17 2.69c25.67,0 46.43,-6.27 62.26,-18.96 15.97,-12.71 29.42,-34.5 40.47,-65.41l23.28 -63.89 -178.58 -468.99 57.34 0 147.07 397.77z"/>
  <polygon id="9" class="fil0" points="7267.97,1162.72 7136.88,1162.72 7136.88,525.77 7267.97,525.77 "/>
  <path id="10" class="fil0" d="M7497.6 689.71l4.04 54.65c33.74,-42.4 79.13,-63.62 136.01,-63.62 50.17,0 87.5,14.78 111.97,44.2 24.5,29.42 37.03,73.47 37.62,131.99l0 305.79 -126.45 0 0 -303.24c0,-26.73 -5.84,-46.29 -17.47,-58.4 -11.65,-12.09 -31.07,-18.2 -58.24,-18.2 -35.53,0 -62.26,15.24 -80.03,45.53l0 334.31 -126.47 0 0 -473.01 119.01 0z"/>
  <path id="11" class="fil0" d="M8309.08 930.55c0,73.02 -16.57,131.39 -49.71,175.29 -33,43.9 -77.8,65.85 -134.08,65.85 -47.78,0 -86.44,-16.57 -115.86,-49.87l0 222.77 -126.47 0 0 -654.88 117.21 0 4.48 46.29c30.61,-36.89 70.47,-55.25 119.9,-55.25 58.22,0 103.61,21.65 136.01,64.81 32.25,43.14 48.52,102.57 48.52,178.42l0 6.57zm-126.45 -9.56c0,-44.2 -7.77,-78.23 -23.44,-102.12 -15.54,-24.04 -38.22,-35.99 -67.94,-35.99 -39.71,0 -66.88,15.24 -81.82,45.53l0 194.25c15.38,31.21 43,46.89 82.72,46.89 60.33,0 90.48,-49.57 90.48,-148.56z"/>
  <path id="12" class="fil0" d="M8653.39 807.82c-17.17,-2.25 -32.25,-3.45 -45.39,-3.45 -47.92,0 -79.27,16.13 -94.07,48.54l0 309.81 -126.45 0 0 -473.01 119.44 0 3.43 56.15c25.39,-43.46 60.63,-65.11 105.42,-65.11 14.04,0 27.17,1.95 39.42,5.68l-1.79 121.4z"/>
  <path id="13" class="fil0" d="M8847.35 1162.72l-126.77 0 0 -473.01 126.77 0 0 473.01zm-134.24 -595.14c0,-18.82 6.27,-34.5 18.96,-46.73 12.71,-12.25 30.02,-18.38 51.96,-18.38 21.51,0 38.68,6.13 51.53,18.38 12.83,12.23 19.26,27.9 19.26,46.73 0,19.26 -6.43,35.09 -19.42,47.32 -12.99,12.25 -30.15,18.36 -51.37,18.36 -21.35,0 -38.52,-6.11 -51.51,-18.36 -12.99,-12.23 -19.42,-28.06 -19.42,-47.32z"/>
  <path id="14" class="fil0" d="M9207.93 1032.09c0,-15.4 -7.77,-27.63 -23,-36.45 -15.38,-8.94 -39.85,-16.87 -73.75,-23.88 -112.57,-23.58 -168.86,-71.52 -168.86,-143.48 0,-42.1 17.47,-77.2 52.24,-105.26 34.95,-28.22 80.49,-42.26 136.77,-42.26 60.03,0 108.11,14.18 144.08,42.4 35.99,28.38 54.06,65.11 54.06,110.34l-126.47 0c0,-18.06 -5.82,-32.84 -17.47,-44.63 -11.63,-11.79 -29.86,-17.63 -54.63,-17.63 -21.35,0 -37.78,4.78 -49.43,14.34 -11.63,9.7 -17.47,21.95 -17.47,36.73 0,13.88 6.57,25.24 19.86,33.74 13.28,8.66 35.69,16.13 67.2,22.25 31.49,6.27 57.92,13.44 79.57,21.21 66.74,24.48 100.18,67.04 100.18,127.35 0,43.16 -18.5,78.1 -55.53,104.82 -37.03,26.73 -84.97,40.01 -143.48,40.01 -39.71,0 -74.97,-7.03 -105.72,-21.21 -30.75,-14.18 -54.79,-33.58 -72.42,-58.22 -17.47,-24.64 -26.13,-51.23 -26.13,-79.89l119.76 0c1.2,22.55 9.54,39.71 24.94,51.8 15.52,11.95 36.27,17.93 62.1,17.93 24.2,0 42.56,-4.64 54.95,-13.74 12.39,-9.26 18.66,-21.35 18.66,-36.27z"/>
  <path class="fil1" d="M1369.6 377.57c-4.06,2.51 -8.15,5 -12.11,8.03l0 0c-0.4,0.28 -9.74,8.03 -10.54,8.8l0 0c-1.95,1.71 -941.76,1006.12 -941.76,1006.12l0 0c-12.49,13.28 -11.97,34.2 1.06,46.83l0 0 7.23 7.11c13.17,12.61 33.94,12.61 47,-0.14l0 0c0,0 978.37,-964.55 978.73,-964.93l0 0c13.82,-12.77 23.16,-28.18 28.02,-43.7l0 0c7.37,-23.14 4.46,-46.73 -10.4,-62.74l0 0c-11.05,-11.87 -26.45,-17.63 -43.3,-17.63l0 0c-14.36,0 -29.62,4.18 -43.98,12.23l0 0 0.04 0.02zm-973.51 489.38c-11.31,15.4 -19.08,33.44 -21.45,52.5l0 0c-2.35,18.54 -1.29,38.94 14.46,51.31l0 0c2.91,2.37 6.19,3.7 9.5,4.24l0 0c6.69,1.04 13.82,-1.2 20.38,-5.14l0 0c3.17,-2.09 6.33,-4.58 9.08,-7.49l0 0c2.91,-2.77 139.9,-171.73 198.97,-242.77l0 0c18.03,-21.85 27.53,-45.93 29.08,-72.12l0 0c0.52,-8.68 0.4,-17.75 -1.04,-26.83l0 0c-4.86,-30.65 -32.25,-61.19 -34.08,-62.4 -5.26,6.47 -215.03,295.31 -224.88,308.72l0 0 -0.02 -0.02zm815.61 276.21c-5.12,2.89 -10.24,6.15 -15.26,10l0 0c-1.95,1.59 -3.53,3.29 -5.26,4.98l0 0 -0.26 -0.4c-36.61,32.37 -293.98,260.28 -298.2,265.42l0 0c-5.8,7.09 -5.94,13.68 -5.66,18.28l0 0c-0.14,1.31 0.66,5.54 1.06,6.29l0 0c5.54,13.68 30.91,19.9 58.95,13.84l0 0c8.17,-1.73 15.52,-4.34 22.13,-7.51l0 0c5.54,-2.63 10.26,-5.66 14.22,-8.96l0 0c28.82,-18.8 265.3,-199.59 281.89,-212.89l0 0 -0.14 -0.28c0.8,-0.8 1.73,-1.41 2.51,-2.23l0 0c25.16,-23.14 31.97,-57.34 14.86,-78.55l0 0c-8.8,-10.93 -22.39,-16.47 -37.36,-16.47l0 0c-10.8,0 -22.35,2.91 -33.4,8.42l0 0 0 0 -0.08 0.06zm-187.24 -738.75c-2.91,3.45 -6.97,7.37 -10,10.8l0 0c0,0 -602.16,695.59 -602.95,696.52l0 0c-16.19,18.14 -29.88,49.35 -35.67,86.18l0 0c-5.4,34.34 -1.73,68.42 6.55,90.66l0 0 731.38 -804.65c6.71,-7.77 11.83,-16.05 15.52,-24.62l0 0c10.4,-24.48 8.42,-50.65 -7.89,-66.96l0 0c-9.86,-9.86 -23.14,-14.6 -37.5,-14.6l0 0c-20.02,0 -41.97,9.2 -59.47,26.71l0 0 0.04 -0.04zm346.72 298.84c-5.54,3.29 -10.93,7.09 -15.91,11.71l0 0c-0.28,0.28 -779.94,754.8 -782.57,757.57l0 0c22.65,7.77 55.25,9.1 90.24,1.43l0 0c34.08,-7.37 62.52,-21.31 80.13,-37.25l0 0 0.14 0.14c25.63,-23.82 692.54,-633.86 692.94,-634.26l0 0c1.97,-1.71 3.43,-3.66 5.14,-5.54l0 0c26.43,-28.54 31.71,-67.64 10.8,-90.4l0 0c-9.9,-10.66 -23.8,-15.77 -39.08,-15.77l0 0c-13.54,0 -28.3,4.18 -41.87,12.35l0 0 0 0 0.04 0.02z"/>
 </g>
</svg>
