<?xml version="1.0" encoding="UTF-8"?>
<!DOCTYPE svg PUBLIC "-//W3C//DTD SVG 1.1//EN" "http://www.w3.org/Graphics/SVG/1.1/DTD/svg11.dtd">
<!-- Creator: CorelDRAW 2020 (64-Bit) -->
<svg xmlns="http://www.w3.org/2000/svg" xml:space="preserve" width="6.17666in" height="6.17666in" version="1.1" style="shape-rendering:geometricPrecision; text-rendering:geometricPrecision; image-rendering:optimizeQuality; fill-rule:evenodd; clip-rule:evenodd"
viewBox="0 0 6042.18 6042.18"
 xmlns:xlink="http://www.w3.org/1999/xlink"
 xmlns:xodm="http://www.corel.com/coreldraw/odm/2003">
 <defs>
  <style type="text/css">
   <![CDATA[
    .fil1 {fill:#B2B2B2}
    .fil0 {fill:#E6E6E6}
   ]]>
  </style>
 </defs>
 <g id="Layer_x0020_1">
  <metadata id="CorelCorpID_0Corel-Layer"/>
  <g id="_2203878463408">
   <rect class="fil0" width="6042.18" height="6042.18"/>
   <path class="fil1" d="M279.98 6042.18l5482.23 0c-12.66,-71.14 -64.78,-209.9 -90.43,-285.43 -76.82,-226.19 -307.33,-507.15 -503.83,-627.36 -258.63,-158.2 -587.97,-195.66 -1026.71,-479.72 -161.84,-104.78 -281.77,-198.35 -374.9,-378.6 -98.87,-191.35 -122.51,-393.89 -72.01,-628.51 22.09,-102.63 68.8,-183.67 116.7,-258.36 30.96,-48.28 20.28,-6.04 52.2,-35.79 24.46,-22.8 121.05,-73.55 141.98,-141.92 20.92,-68.37 156.57,-326.74 156.22,-411.96 -0.34,-85.21 -13.67,-78.46 -82.11,-100.4 -37.55,-149.15 112.53,-310.18 52.64,-644.22 -52.26,-291.43 -228.62,-504.04 -425.26,-673.31 -95.14,-81.9 -97.26,-79.32 -238.62,-129.66 -104.94,-37.38 -118.15,-85.62 -239.15,-125.98 -509.45,-169.91 -1028.82,139 -1252.47,487.18 -94.91,147.75 -161.85,344.78 -178.56,554.59 -8.57,107.57 -2.33,390.39 58.46,483.9 44.22,68.04 -6.32,109.62 -22.93,139 -23.85,42.17 0.99,125.98 17.82,156.38 18.67,33.72 42.01,110.96 53.46,129.04 18.58,29.34 40.28,97.11 49.81,132.82 14.28,53.48 37.54,82.7 66.32,119.56 10.52,13.47 28.78,42.63 38.29,52.94 12.52,13.58 42.87,21.88 55.64,35.64 2.59,2.79 51.23,104.53 60.74,121.95 42.4,77.71 89.97,156.88 126.51,242.05 200.06,466.23 -154.46,754.33 -446.4,903.83 -157.48,80.64 -363.68,138.72 -553.25,180.38 -143.59,31.56 -383.51,193.8 -468.93,264.6 -232.46,192.7 -476.83,471.77 -553.44,917.36z"/>
  </g>
 </g>
</svg>
