<svg xmlns="http://www.w3.org/2000/svg" width="25" height="25.01" viewBox="0 0 25 25.01">
  <g id="Layer_x0020_1" transform="translate(25) rotate(90)">
    <path id="Path_78018" data-name="Path 78018" d="M.236,24.614a1.043,1.043,0,0,0,.8.386,1.1,1.1,0,0,0,.261-.037l11.2-3.056,11.2,3.051a1.087,1.087,0,0,0,.261.042h0a1.042,1.042,0,0,0,.932-1.508L13.437.566a.851.851,0,0,0-.076-.094.869.869,0,0,0-.3-.3A.889.889,0,0,0,12.97.1.1.1,0,0,1,12.9.081a1.1,1.1,0,0,0-.206-.057.784.784,0,0,0-.38,0,1.147,1.147,0,0,0-.206.057.1.1,0,0,0-.07.018.881.881,0,0,0-.094.076.869.869,0,0,0-.3.3.889.889,0,0,0-.076.094L.108,23.491a1.042,1.042,0,0,0,.128,1.123h0ZM12.5,3.359l9.488,18.977L13.546,20.03V12.5a1.042,1.042,0,0,0-2.084,0V20.03L3.016,22.335,12.5,3.359Z" transform="translate(0 0)" fill="#14c6f1"/>
  </g>
</svg>
