<svg id="Layer_x0020_1" xmlns="http://www.w3.org/2000/svg" width="26.943" height="20" viewBox="0 0 26.943 20">
  <path id="Path_78016" data-name="Path 78016" d="M26.953,9.989a11.543,11.543,0,0,1-5.533,9.842,1.223,1.223,0,0,1-1.269-2.092,9.062,9.062,0,0,0,.034-15.466,1.221,1.221,0,0,1,1.28-2.08A11.51,11.51,0,0,1,26.941,10Zm-9.408,6.573a6.939,6.939,0,0,0,.069-13.134,1.222,1.222,0,0,0-.8,2.309,4.486,4.486,0,0,1-.046,8.493,1.225,1.225,0,1,0,.789,2.32ZM14.71,2.65a1.838,1.838,0,0,0-2.983-1.44L6.937,5.051H1.85A1.839,1.839,0,0,0,.01,6.891v6.127a1.839,1.839,0,0,0,1.84,1.84H6.937l4.79,3.841a1.838,1.838,0,0,0,2.983-1.44V2.662ZM8.3,7.1l3.967-3.178V15.967L8.3,12.79a1.832,1.832,0,0,0-1.143-.4H2.468v-4.9H7.154a1.786,1.786,0,0,0,1.143-.4Z" transform="translate(-0.01 -0.012)" fill="#ffffff" fill-rule="evenodd"/>
</svg>
